<svg xmlns="http://www.w3.org/2000/svg" width="1024" height="1024" viewBox="0 0 1024 1024"><path fill="#FFFFFF" d="M174.1 368.4L301.1 242.3L307 232.9L313.9 229.5L314.7 224.4L349.6 188.6L357.3 186L363.3 174.9L572.9 174.1L579.8 176.6L603.6 204.8L682 283.2L688.8 286.6L688 291.7L409.3 291.7L401.6 295.1L389.7 310.4L376.9 319.8L371.8 329.2L335.2 363.3L333.5 369.2L335.2 371.8L617.3 371.8L618.1 734L622.4 737.4L636 738.3L750.2 737.4L849.9 838L849.1 844L512.4 843.1L515 820.9L511.6 751.9L515 742.5L512.4 480L509 474.9L428.1 474.9L428.1 481.7L488.6 543.1L489.4 848.2L481.7 849.9L284 653.9L258.5 624.1L247.4 616.4L249.1 610.4L405.9 610.4L406.7 603.6L180 378.6L174.1 369.2Z"></path></svg>